# This file uses centimeters as units for non-parametric coordinates.

mtllib Mesa Madera.mtl
g default
v -38.635257 45.455932 -22.727976
v -43.182376 45.455932 -22.727977
v -38.635257 -0.000001 -22.727974
v -43.182376 -0.000001 -22.727975
v -38.635257 45.455931 -27.273570
v -43.182376 45.455931 -27.273570
v -38.635257 -0.000001 -27.273569
v -43.182376 -0.000001 -27.273569
vt 0.000244 0.000244
vt 0.910400 0.000244
vt 0.000244 0.250000
vt 0.910400 0.250000
vt 0.000244 0.500000
vt 0.910400 0.500000
vt 0.000244 0.750000
vt 0.910400 0.750000
vt 0.000244 0.999756
vt 0.910400 0.999756
vn -0.577355 -0.577348 -0.577348
vn -0.577355 0.577348 0.577348
vn -0.577337 0.577370 -0.577344
vn -0.577337 0.577370 -0.577344
vn -0.577355 0.577348 0.577348
vn 0.577337 0.577370 0.577344
vn -0.577337 0.577370 -0.577344
vn 0.577337 0.577370 0.577344
vn 0.577355 0.577348 -0.577348
vn 0.577355 0.577348 -0.577348
vn 0.577337 0.577370 0.577344
vn 0.577354 -0.577348 0.577348
vn -0.577337 0.577370 -0.577344
vn 0.577355 0.577348 -0.577348
vn 0.577337 -0.577370 -0.577344
vn 0.577337 -0.577370 -0.577344
vn 0.577355 0.577348 -0.577348
vn 0.577354 -0.577348 0.577348
vn -0.577337 0.577370 -0.577344
vn 0.577337 -0.577370 -0.577344
vn -0.577355 -0.577348 -0.577348
vn 0.577337 -0.577370 -0.577344
vn 0.577354 -0.577348 0.577348
vn -0.577337 -0.577370 0.577344
vn 0.577337 -0.577370 -0.577344
vn -0.577337 -0.577370 0.577344
vn -0.577355 -0.577348 -0.577348
vn -0.577355 -0.577348 -0.577348
vn -0.577337 -0.577370 0.577344
vn -0.577355 0.577348 0.577348
vn -0.577355 0.577348 0.577348
vn -0.577337 -0.577370 0.577344
vn 0.577337 0.577370 0.577344
vn 0.577337 0.577370 0.577344
vn -0.577337 -0.577370 0.577344
vn 0.577354 -0.577348 0.577348
s off
g pasted__pasted__Bein1 ParentNode
usemtl pasted__pasted__Bein1SG
f 8/5/1 2/4/2 6/6/3
f 6/6/4 2/4/5 1/10/6
f 6/6/7 1/10/8 5/8/9
f 5/8/10 1/10/11 3/9/12
f 6/6/13 5/8/14 7/7/15
f 7/7/16 5/8/17 3/9/18
f 6/6/19 7/7/20 8/5/21
f 7/7/22 3/9/23 4/3/24
f 7/7/25 4/3/26 8/5/27
f 8/5/28 4/3/29 2/4/30
f 2/4/31 4/3/32 1/2/33
f 1/2/34 4/3/35 3/1/36
g default
v 38.635263 45.455932 -22.727967
v 43.182382 45.455932 -22.727965
v 38.635263 -0.000001 -22.727965
v 43.182382 -0.000001 -22.727963
v 38.635263 45.455931 -27.273559
v 43.182382 45.455931 -27.273559
v 38.635263 -0.000001 -27.273557
v 43.182382 -0.000001 -27.273557
vt 0.000244 0.000244
vt 0.910400 0.000244
vt 0.000244 0.250000
vt 0.910400 0.250000
vt 0.000244 0.500000
vt 0.910400 0.500000
vt 0.000244 0.750000
vt 0.910400 0.750000
vt 0.000244 0.999756
vt 0.910400 0.999756
vn -0.577355 0.577348 0.577348
vn -0.577337 0.577370 -0.577344
vn -0.577355 -0.577348 -0.577348
vn -0.577337 0.577370 -0.577344
vn -0.577355 0.577348 0.577348
vn 0.577337 0.577370 0.577344
vn -0.577337 0.577370 -0.577344
vn 0.577337 0.577370 0.577344
vn 0.577355 0.577348 -0.577348
vn 0.577355 0.577348 -0.577348
vn 0.577337 0.577370 0.577344
vn 0.577355 -0.577348 0.577348
vn -0.577337 0.577370 -0.577344
vn 0.577355 0.577348 -0.577348
vn 0.577337 -0.577370 -0.577344
vn 0.577337 -0.577370 -0.577344
vn 0.577355 0.577348 -0.577348
vn 0.577355 -0.577348 0.577348
vn -0.577337 0.577370 -0.577344
vn 0.577337 -0.577370 -0.577344
vn -0.577355 -0.577348 -0.577348
vn 0.577337 -0.577370 -0.577344
vn 0.577355 -0.577348 0.577348
vn -0.577337 -0.577370 0.577344
vn 0.577337 -0.577370 -0.577344
vn -0.577337 -0.577370 0.577344
vn -0.577355 -0.577348 -0.577348
vn -0.577355 -0.577348 -0.577348
vn -0.577337 -0.577370 0.577344
vn -0.577355 0.577348 0.577348
vn -0.577355 0.577348 0.577348
vn -0.577337 -0.577370 0.577344
vn 0.577337 0.577370 0.577344
vn 0.577337 0.577370 0.577344
vn -0.577337 -0.577370 0.577344
vn 0.577355 -0.577348 0.577348
s off
g ParentNode pasted__pasted__Bein_5
usemtl pasted__pasted__Bein_5SG
f 9/14/37 13/16/38 15/15/39
f 13/16/40 9/14/41 10/20/42
f 13/16/43 10/20/44 14/18/45
f 14/18/46 10/20/47 12/19/48
f 13/16/49 14/18/50 16/17/51
f 16/17/52 14/18/53 12/19/54
f 13/16/55 16/17/56 15/15/57
f 16/17/58 12/19/59 11/13/60
f 16/17/61 11/13/62 15/15/63
f 15/15/64 11/13/65 9/14/66
f 9/14/67 11/13/68 10/12/69
f 10/12/70 11/13/71 12/11/72
g default
v -38.635263 45.455934 22.727963
v -43.182382 45.455934 22.727961
v -38.635263 0.000001 22.727965
v -43.182382 0.000001 22.727963
v -38.635263 45.455934 27.273555
v -43.182382 45.455934 27.273555
v -38.635263 0.000001 27.273557
v -43.182382 0.000001 27.273557
vt 0.728516 0.000244
vt 0.000244 0.200195
vt 0.728516 0.200195
vt 0.000244 0.400146
vt 0.728516 0.400146
vt 0.000244 0.599854
vt 0.728516 0.599854
vt 0.000244 0.799805
vt 0.728516 0.799805
vt 0.000244 0.999756
vt 0.728516 0.999756
vn -0.577337 0.577370 -0.577344
vn -0.577355 -0.577348 -0.577348
vn -0.577355 0.577348 0.577348
vn -0.577337 0.577370 -0.577344
vn -0.577355 0.577348 0.577348
vn 0.577337 0.577370 0.577344
vn -0.577337 0.577370 -0.577344
vn 0.577337 0.577370 0.577344
vn 0.577354 0.577348 -0.577348
vn 0.577337 0.577370 0.577344
vn -0.577355 0.577348 0.577348
vn -0.577337 -0.577370 0.577344
vn -0.577337 -0.577370 0.577344
vn -0.577355 0.577348 0.577348
vn -0.577355 -0.577348 -0.577348
vn 0.577337 0.577370 0.577344
vn -0.577337 -0.577370 0.577344
vn 0.577355 -0.577348 0.577348
vn -0.577355 -0.577348 -0.577348
vn -0.577337 0.577370 -0.577344
vn 0.577337 -0.577370 -0.577344
vn -0.577355 -0.577348 -0.577348
vn 0.577337 -0.577370 -0.577344
vn -0.577337 -0.577370 0.577344
vn 0.577337 -0.577370 -0.577344
vn -0.577337 0.577370 -0.577344
vn 0.577354 0.577348 -0.577348
vn -0.577337 -0.577370 0.577344
vn 0.577337 -0.577370 -0.577344
vn 0.577355 -0.577348 0.577348
vn 0.577355 -0.577348 0.577348
vn 0.577337 -0.577370 -0.577344
vn 0.577354 0.577348 -0.577348
vn 0.577355 -0.577348 0.577348
vn 0.577354 0.577348 -0.577348
vn 0.577337 0.577370 0.577344
s off
g ParentNode pasted__pasted__Bein_6
usemtl pasted__pasted__Bein_6SG
f 18/27/73 20/26/74 22/25/75
f 18/27/76 22/25/77 21/23/78
f 18/27/79 21/23/80 17/21/81
f 21/23/82 22/25/83 24/24/84
f 24/24/85 22/25/86 20/26/87
f 21/23/88 24/24/89 23/22/90
f 20/26/91 18/27/92 19/28/93
f 20/26/94 19/28/95 24/24/96
f 19/28/97 18/27/98 17/29/99
f 24/24/100 19/28/101 23/30/102
f 23/30/103 19/28/104 17/29/105
f 23/30/106 17/29/107 21/31/108
g default
v 38.635257 45.455934 22.727972
v 43.182376 45.455934 22.727973
v 38.635257 0.000001 22.727974
v 43.182376 0.000001 22.727975
v 38.635257 45.455934 27.273567
v 43.182376 45.455934 27.273567
v 38.635257 0.000001 27.273569
v 43.182376 0.000001 27.273569
vt 0.000244 0.000244
vt 0.000244 0.200195
vt 0.728516 0.200195
vt 0.000244 0.400146
vt 0.728516 0.400146
vt 0.000244 0.599854
vt 0.728516 0.599854
vt 0.000244 0.799805
vt 0.728516 0.799805
vt 0.000244 0.999756
vt 0.728516 0.999756
vn -0.577337 0.577370 -0.577344
vn -0.577354 -0.577348 -0.577348
vn -0.577355 0.577348 0.577348
vn -0.577337 0.577370 -0.577344
vn -0.577355 0.577348 0.577348
vn 0.577337 0.577370 0.577344
vn -0.577337 0.577370 -0.577344
vn 0.577337 0.577370 0.577344
vn 0.577355 0.577348 -0.577348
vn 0.577355 0.577348 -0.577348
vn 0.577337 0.577370 0.577344
vn 0.577355 -0.577348 0.577348
vn 0.577355 0.577348 -0.577348
vn 0.577355 -0.577348 0.577348
vn 0.577337 -0.577370 -0.577344
vn 0.577355 0.577348 -0.577348
vn 0.577337 -0.577370 -0.577344
vn -0.577337 0.577370 -0.577344
vn -0.577337 0.577370 -0.577344
vn 0.577337 -0.577370 -0.577344
vn -0.577354 -0.577348 -0.577348
vn -0.577355 0.577348 0.577348
vn -0.577354 -0.577348 -0.577348
vn -0.577337 -0.577370 0.577344
vn -0.577355 0.577348 0.577348
vn -0.577337 -0.577370 0.577344
vn 0.577337 0.577370 0.577344
vn -0.577337 -0.577370 0.577344
vn -0.577354 -0.577348 -0.577348
vn 0.577337 -0.577370 -0.577344
vn 0.577337 0.577370 0.577344
vn -0.577337 -0.577370 0.577344
vn 0.577355 -0.577348 0.577348
vn 0.577355 -0.577348 0.577348
vn -0.577337 -0.577370 0.577344
vn 0.577337 -0.577370 -0.577344
s off
g ParentNode pasted__pasted__Bein_7
usemtl pasted__pasted__Bein_7SG
f 25/38/109 27/37/110 29/36/111
f 25/38/112 29/36/113 30/42/114
f 25/38/115 30/42/116 26/40/117
f 26/40/118 30/42/119 32/41/120
f 26/40/121 32/41/122 28/39/123
f 26/40/124 28/39/125 25/38/126
f 25/38/127 28/39/128 27/37/129
f 29/36/130 27/37/131 31/35/132
f 29/36/133 31/35/134 30/34/135
f 31/35/136 27/37/137 28/32/138
f 30/34/139 31/35/140 32/33/141
f 32/33/142 31/35/143 28/32/144
g default
v -50.000012 44.326784 31.817621
v 50.000000 44.326784 31.817633
v -50.000012 46.600343 31.817621
v 50.000000 46.600343 31.817633
v -50.000000 44.326781 -31.817639
v 50.000012 44.326781 -31.817627
v -50.000000 46.600340 -31.817639
v 50.000012 46.600340 -31.817627
vt 0.000000 0.000977
vt 0.499268 0.000977
vt 0.500977 0.000977
vt 1.000000 0.000977
vt 0.000000 0.784912
vt 0.499268 0.784912
vt 0.500977 0.784912
vt 1.000000 0.784912
vt 0.000977 0.788086
vt 0.784912 0.788086
vt 0.000977 0.805664
vt 0.784912 0.805664
vt 0.000977 0.807129
vt 0.784912 0.807129
vt 0.000977 0.824951
vt 0.784912 0.824951
vt 0.000000 0.826416
vt 0.499268 0.826416
vt 0.000000 0.844238
vt 0.499268 0.844238
vt 0.000000 0.845703
vt 0.499268 0.845703
vt 0.000000 0.863525
vt 0.499268 0.863525
vn -0.577347 0.577350 -0.577354
vn -0.577356 -0.577347 -0.577347
vn -0.577356 0.577347 0.577347
vn -0.577356 0.577347 0.577347
vn -0.577356 -0.577347 -0.577347
vn -0.577347 -0.577350 0.577354
vn 0.577347 0.577350 0.577354
vn -0.577356 0.577347 0.577347
vn -0.577347 -0.577350 0.577354
vn 0.577347 0.577350 0.577354
vn -0.577347 -0.577350 0.577354
vn 0.577356 -0.577347 0.577348
vn 0.577356 0.577347 -0.577347
vn 0.577347 0.577350 0.577354
vn 0.577356 -0.577347 0.577348
vn 0.577356 0.577347 -0.577347
vn 0.577356 -0.577347 0.577348
vn 0.577347 -0.577350 -0.577354
vn -0.577347 0.577350 -0.577354
vn 0.577356 0.577347 -0.577347
vn 0.577347 -0.577350 -0.577354
vn -0.577347 0.577350 -0.577354
vn 0.577347 -0.577350 -0.577354
vn -0.577356 -0.577347 -0.577347
vn 0.577347 0.577350 0.577354
vn 0.577356 0.577347 -0.577347
vn -0.577347 0.577350 -0.577354
vn 0.577347 0.577350 0.577354
vn -0.577347 0.577350 -0.577354
vn -0.577356 0.577347 0.577347
vn -0.577347 -0.577350 0.577354
vn -0.577356 -0.577347 -0.577347
vn 0.577347 -0.577350 -0.577354
vn -0.577347 -0.577350 0.577354
vn 0.577347 -0.577350 -0.577354
vn 0.577356 -0.577347 0.577348
s off
g ParentNode pasted__pasted__Platte1
usemtl pasted__pasted__Platte1SG
f 39/60/145 37/62/146 35/59/147
f 35/59/148 37/62/149 33/61/150
f 36/51/151 35/52/152 33/54/153
f 36/51/154 33/54/155 34/53/156
f 40/63/157 36/64/158 34/66/159
f 40/63/160 34/66/161 38/65/162
f 39/55/163 40/56/164 38/58/165
f 39/55/166 38/58/167 37/57/168
f 36/48/169 40/47/170 39/43/171
f 36/48/172 39/43/173 35/44/174
f 33/50/175 37/49/176 38/45/177
f 33/50/178 38/45/179 34/46/180
g default
v 38.595584 34.091950 22.727972
v 43.139651 34.091950 22.727973
v 38.595584 38.636781 22.727972
v 43.139651 38.636781 22.727973
v 38.595590 34.091948 -22.727967
v 43.139657 34.091948 -22.727965
v 38.595590 38.636779 -22.727967
v 43.139657 38.636779 -22.727966
vt 0.000244 0.000244
vt 0.099854 0.000244
vt 0.100342 0.000244
vt 0.199951 0.000244
vt 0.200439 0.000244
vt 0.300049 0.000244
vt 0.300537 0.000244
vt 0.400146 0.000244
vt 0.400879 0.000244
vt 0.500244 0.000244
vt 0.400879 0.099854
vt 0.500244 0.099854
vt 0.400879 0.100342
vt 0.500244 0.100342
vt 0.400879 0.199951
vt 0.500244 0.199951
vt 0.000244 0.999756
vt 0.099854 0.999756
vt 0.100342 0.999756
vt 0.199951 0.999756
vt 0.200439 0.999756
vt 0.300049 0.999756
vt 0.300537 0.999756
vt 0.400146 0.999756
vn -0.577355 0.577348 0.577348
vn -0.577337 0.577344 -0.577370
vn -0.577355 -0.577348 -0.577348
vn -0.577355 0.577348 0.577348
vn -0.577355 -0.577348 -0.577348
vn -0.577337 -0.577344 0.577370
vn 0.577337 0.577344 0.577370
vn -0.577355 0.577348 0.577348
vn -0.577337 -0.577344 0.577370
vn 0.577337 0.577344 0.577370
vn -0.577337 -0.577344 0.577370
vn 0.577355 -0.577348 0.577348
vn 0.577355 0.577348 -0.577348
vn 0.577337 0.577344 0.577370
vn 0.577355 -0.577348 0.577348
vn 0.577355 0.577348 -0.577348
vn 0.577355 -0.577348 0.577348
vn 0.577337 -0.577344 -0.577370
vn -0.577337 0.577344 -0.577370
vn 0.577355 0.577348 -0.577348
vn 0.577337 -0.577344 -0.577370
vn -0.577337 0.577344 -0.577370
vn 0.577337 -0.577344 -0.577370
vn -0.577355 -0.577348 -0.577348
vn 0.577337 0.577344 0.577370
vn 0.577355 0.577348 -0.577348
vn -0.577337 0.577344 -0.577370
vn 0.577337 0.577344 0.577370
vn -0.577337 0.577344 -0.577370
vn -0.577355 0.577348 0.577348
vn -0.577337 -0.577344 0.577370
vn -0.577355 -0.577348 -0.577348
vn 0.577337 -0.577344 -0.577370
vn -0.577337 -0.577344 0.577370
vn 0.577337 -0.577344 -0.577370
vn 0.577355 -0.577348 0.577348
s off
g ParentNode pasted__pasted__StFBXASC195FBXASC188tze1
usemtl pasted__pasted__StFBXASC195FBXASC188tze1SG
f 43/68/181 47/84/182 45/83/183
f 43/68/184 45/83/185 41/67/186
f 44/76/187 43/78/188 41/77/189
f 44/76/190 41/77/191 42/75/192
f 48/70/193 44/86/194 42/85/195
f 48/70/196 42/85/197 46/69/198
f 47/80/199 48/82/200 46/81/201
f 47/80/202 46/81/203 45/79/204
f 44/72/205 48/88/206 47/87/207
f 44/72/208 47/87/209 43/71/210
f 41/74/211 45/90/212 46/89/213
f 41/74/214 46/89/215 42/73/216
g default
v -40.908819 34.091950 2.272790
v 40.908819 34.091950 2.272801
v -40.908819 38.636780 2.272789
v 40.908819 38.636780 2.272801
v -40.908819 34.091949 -2.272804
v 40.908819 34.091949 -2.272793
v -40.908819 38.636780 -2.272804
v 40.908819 38.636780 -2.272793
vt 0.000244 0.000244
vt 0.055420 0.000244
vt 0.055908 0.000244
vt 0.111328 0.000244
vt 0.111572 0.000244
vt 0.166992 0.000244
vt 0.167480 0.000244
vt 0.222656 0.000244
vt 0.223145 0.000244
vt 0.278564 0.000244
vt 0.223145 0.055420
vt 0.278564 0.055420
vt 0.223145 0.055908
vt 0.278564 0.055908
vt 0.223145 0.111328
vt 0.278564 0.111328
vt 0.000244 0.999756
vt 0.055420 0.999756
vt 0.055908 0.999756
vt 0.111328 0.999756
vt 0.111572 0.999756
vt 0.166992 0.999756
vt 0.167480 0.999756
vt 0.222656 0.999756
vn -0.577372 0.577339 0.577339
vn -0.577343 0.577354 -0.577353
vn -0.577372 -0.577339 -0.577339
vn -0.577372 0.577339 0.577339
vn -0.577372 -0.577339 -0.577339
vn -0.577344 -0.577354 0.577353
vn 0.577343 0.577354 0.577353
vn -0.577372 0.577339 0.577339
vn -0.577344 -0.577354 0.577353
vn 0.577343 0.577354 0.577353
vn -0.577344 -0.577354 0.577353
vn 0.577372 -0.577339 0.577339
vn 0.577372 0.577339 -0.577339
vn 0.577343 0.577354 0.577353
vn 0.577372 -0.577339 0.577339
vn 0.577372 0.577339 -0.577339
vn 0.577372 -0.577339 0.577339
vn 0.577344 -0.577354 -0.577353
vn -0.577343 0.577354 -0.577353
vn 0.577372 0.577339 -0.577339
vn 0.577344 -0.577354 -0.577353
vn -0.577343 0.577354 -0.577353
vn 0.577344 -0.577354 -0.577353
vn -0.577372 -0.577339 -0.577339
vn 0.577343 0.577354 0.577353
vn 0.577372 0.577339 -0.577339
vn -0.577343 0.577354 -0.577353
vn 0.577343 0.577354 0.577353
vn -0.577343 0.577354 -0.577353
vn -0.577372 0.577339 0.577339
vn -0.577344 -0.577354 0.577353
vn -0.577372 -0.577339 -0.577339
vn 0.577344 -0.577354 -0.577353
vn -0.577344 -0.577354 0.577353
vn 0.577344 -0.577354 -0.577353
vn 0.577372 -0.577339 0.577339
s off
g ParentNode pasted__pasted__StFBXASC195FBXASC188tze_4
usemtl pasted__pasted__StFBXASC195FBXASC188tze_4SG
f 51/100/217 55/102/218 53/101/219
f 51/100/220 53/101/221 49/99/222
f 52/92/223 51/108/224 49/107/225
f 52/92/226 49/107/227 50/91/228
f 56/104/229 52/106/230 50/105/231
f 56/104/232 50/105/233 54/103/234
f 55/94/235 56/110/236 54/109/237
f 55/94/238 54/109/239 53/93/240
f 52/112/241 56/111/242 55/95/243
f 52/112/244 55/95/245 51/96/246
f 49/114/247 53/113/248 54/97/249
f 49/114/250 54/97/251 50/98/252
g default
v -38.369760 34.091950 22.727964
v -42.916879 34.091950 22.727962
v -38.369760 38.636781 22.727964
v -42.916879 38.636781 22.727962
v -38.369754 34.091948 -22.727975
v -42.916873 34.091948 -22.727976
v -38.369754 38.636779 -22.727975
v -42.916873 38.636779 -22.727976
vt 0.000244 0.000244
vt 0.099854 0.000244
vt 0.100342 0.000244
vt 0.199951 0.000244
vt 0.200439 0.000244
vt 0.300049 0.000244
vt 0.300537 0.000244
vt 0.400146 0.000244
vt 0.400879 0.000244
vt 0.500244 0.000244
vt 0.400879 0.099854
vt 0.500244 0.099854
vt 0.400879 0.100342
vt 0.500244 0.100342
vt 0.400879 0.199951
vt 0.500244 0.199951
vt 0.000244 0.999756
vt 0.099854 0.999756
vt 0.100342 0.999756
vt 0.199951 0.999756
vt 0.200439 0.999756
vt 0.300049 0.999756
vt 0.300537 0.999756
vt 0.400146 0.999756
vn -0.577355 0.577348 0.577348
vn -0.577337 0.577344 -0.577370
vn -0.577355 -0.577348 -0.577348
vn -0.577355 0.577348 0.577348
vn -0.577355 -0.577348 -0.577348
vn -0.577337 -0.577344 0.577370
vn 0.577337 0.577344 0.577370
vn -0.577355 0.577348 0.577348
vn -0.577337 -0.577344 0.577370
vn 0.577337 0.577344 0.577370
vn -0.577337 -0.577344 0.577370
vn 0.577355 -0.577348 0.577348
vn 0.577355 0.577348 -0.577348
vn 0.577337 0.577344 0.577370
vn 0.577355 -0.577348 0.577348
vn 0.577355 0.577348 -0.577348
vn 0.577355 -0.577348 0.577348
vn 0.577337 -0.577344 -0.577370
vn -0.577337 0.577344 -0.577370
vn 0.577355 0.577348 -0.577348
vn 0.577337 -0.577344 -0.577370
vn -0.577337 0.577344 -0.577370
vn 0.577337 -0.577344 -0.577370
vn -0.577355 -0.577348 -0.577348
vn 0.577337 0.577344 0.577370
vn 0.577355 0.577348 -0.577348
vn -0.577337 0.577344 -0.577370
vn 0.577337 0.577344 0.577370
vn -0.577337 0.577344 -0.577370
vn -0.577355 0.577348 0.577348
vn -0.577337 -0.577344 0.577370
vn -0.577355 -0.577348 -0.577348
vn 0.577337 -0.577344 -0.577370
vn -0.577337 -0.577344 0.577370
vn 0.577337 -0.577344 -0.577370
vn 0.577355 -0.577348 0.577348
s off
g ParentNode pasted__pasted__StFBXASC195FBXASC188tze_5
usemtl pasted__pasted__StFBXASC195FBXASC188tze_5SG
f 60/116/253 64/132/254 62/131/255
f 60/116/256 62/131/257 58/115/258
f 59/124/259 60/126/260 58/125/261
f 59/124/262 58/125/263 57/123/264
f 63/118/265 59/134/266 57/133/267
f 63/118/268 57/133/269 61/117/270
f 64/128/271 63/130/272 61/129/273
f 64/128/274 61/129/275 62/127/276
f 59/120/277 63/136/278 64/135/279
f 59/120/280 64/135/281 60/119/282
f 58/122/283 62/138/284 61/137/285
f 58/122/286 61/137/287 57/121/288
